<svg width="32" height="32" xmlns:xlink="http://www.w3.org/1999/xlink" xmlns="http://www.w3.org/2000/svg">
    <style>
        @media (prefers-color-scheme: dark) {
            .a { fill: #f0f0f0 }
        }
    </style>
    <defs>
        <radialGradient xlink:href="#a" id="b" cx="16" cy="8.11" fx="16" fy="8.11" r="15" gradientUnits="userSpaceOnUse"
            gradientTransform="translate(-8.354 -4.234) scale(1.5221)" />
        <linearGradient id="a">
            <stop style="stop-color:#bada55;stop-opacity:1" offset="0" />
            <stop style="stop-color:#647c1b;stop-opacity:1" offset="1" />
        </linearGradient>
    </defs>
    <g style="display:inline">
        <path class="a" style="display:inline;opacity:1;fill:url(#b);fill-opacity:1;fill-rule:evenodd"
            d="M1 1v30h3a2 2 0 0 0 2-2V5c0-1-1-1-2-1V3c2 0 3-1 3-2Zm8 0v16c5-7 12-4 12 2v11.143C26.825 28.083 31 22.53 31 16c0-8.284-6.716-15-15-15Zm5.322 14.215C12.692 15.266 10.75 16.25 9 18v11a2 2 0 0 0 2 2h5a2 2 0 0 0 2-2v-9c0-3.375-1.582-4.851-3.678-4.785z" />
    </g>
</svg>